<?xml version="1.0" encoding="UTF-8" standalone="no"?>
<!DOCTYPE svg PUBLIC "-//W3C//DTD SVG 1.1//EN"
 "http://www.w3.org/Graphics/SVG/1.1/DTD/svg11.dtd">
<!-- Generated by graphviz version 14.1.5 (0)
 -->
<!-- Title: G Pages: 1 -->
<svg width="1048pt" height="327pt"
 viewBox="0.00 0.00 1048.00 327.00" xmlns="http://www.w3.org/2000/svg" xmlns:xlink="http://www.w3.org/1999/xlink">
<g id="graph0" class="graph" transform="scale(1 1) rotate(0) translate(4 323.25)">
<title>G</title>
<!-- ncpc -->
<g id="node1" class="node">
<title>ncpc</title>
<text xml:space="preserve" text-anchor="middle" x="608" y="-42.45" font-family="Times,serif" font-size="14.00">NCPC</text>
<text xml:space="preserve" text-anchor="middle" x="608" y="-25.2" font-family="Times,serif" font-size="14.00">🇸🇪 🇳🇴 🇩🇰 🇮🇸</text>
<text xml:space="preserve" text-anchor="middle" x="608" y="-7.95" font-family="Times,serif" font-size="14.00">🇫🇮 🇪🇪 🇱🇹</text>
</g>
<!-- nwerc -->
<g id="node2" class="node">
<title>nwerc</title>
<text xml:space="preserve" text-anchor="middle" x="751" y="-120.95" font-family="Times,serif" font-size="14.00">NWERC</text>
<text xml:space="preserve" text-anchor="middle" x="751" y="-103.7" font-family="Times,serif" font-size="14.00">🇪🇺</text>
</g>
<!-- ncpc&#45;&gt;nwerc -->
<g id="edge1" class="edge">
<title>ncpc&#45;&gt;nwerc</title>
<path fill="none" stroke="black" stroke-width="2" d="M656.41,-59.69C672.45,-69.24 690.23,-79.82 706,-89.21"/>
<polygon fill="black" stroke="black" stroke-width="2" points="704.09,-92.15 714.48,-94.26 707.67,-86.14 704.09,-92.15"/>
</g>
<!-- euc -->
<g id="node3" class="node">
<title>euc</title>
<text xml:space="preserve" text-anchor="middle" x="842" y="-199.45" font-family="Times,serif" font-size="14.00">EUC</text>
<text xml:space="preserve" text-anchor="middle" x="842" y="-182.2" font-family="Times,serif" font-size="14.00">🇪🇺</text>
</g>
<!-- nwerc&#45;&gt;euc -->
<g id="edge2" class="edge">
<title>nwerc&#45;&gt;euc</title>
<path fill="none" stroke="black" stroke-width="2" d="M774.91,-138.1C785.07,-146.64 797.1,-156.75 808.15,-166.04"/>
<polygon fill="black" stroke="black" stroke-width="2" points="805.71,-168.57 815.62,-172.32 810.22,-163.21 805.71,-168.57"/>
</g>
<!-- icpc -->
<g id="node4" class="node">
<title>icpc</title>
<text xml:space="preserve" text-anchor="middle" x="472" y="-300.05" font-family="Times,serif" font-size="16.00">ICPC</text>
<text xml:space="preserve" text-anchor="middle" x="472" y="-280.55" font-family="Times,serif" font-size="16.00">World Finals</text>
<text xml:space="preserve" text-anchor="middle" x="472" y="-261.05" font-family="Times,serif" font-size="16.00">🌎 🌍 🌏</text>
</g>
<!-- euc&#45;&gt;icpc -->
<g id="edge3" class="edge">
<title>euc&#45;&gt;icpc</title>
<path fill="none" stroke="black" stroke-width="2" d="M815.09,-202.94C758.84,-216.39 627.16,-247.89 544.27,-267.71"/>
<polygon fill="black" stroke="black" stroke-width="2" points="543.51,-264.3 534.6,-270.03 545.14,-271.1 543.51,-264.3"/>
</g>
<!-- mdp1 -->
<g id="node5" class="node">
<title>mdp1</title>
<text xml:space="preserve" text-anchor="middle" x="29" y="-33.83" font-family="Times,serif" font-size="14.00">MdP1</text>
<text xml:space="preserve" text-anchor="middle" x="29" y="-16.57" font-family="Times,serif" font-size="14.00">🇧🇷</text>
</g>
<!-- mdp2 -->
<g id="node6" class="node">
<title>mdp2</title>
<text xml:space="preserve" text-anchor="middle" x="29" y="-120.95" font-family="Times,serif" font-size="14.00">MdP2</text>
<text xml:space="preserve" text-anchor="middle" x="29" y="-103.7" font-family="Times,serif" font-size="14.00">🇧🇷</text>
</g>
<!-- mdp1&#45;&gt;mdp2 -->
<g id="edge4" class="edge">
<title>mdp1&#45;&gt;mdp2</title>
<path fill="none" stroke="black" d="M29,-51.05C29,-61.12 29,-73.53 29,-84.79"/>
<polygon fill="black" stroke="black" points="25.5,-84.46 29,-94.46 32.5,-84.46 25.5,-84.46"/>
</g>
<!-- lac -->
<g id="node7" class="node">
<title>lac</title>
<text xml:space="preserve" text-anchor="middle" x="103" y="-199.45" font-family="Times,serif" font-size="14.00">LAC</text>
<text xml:space="preserve" text-anchor="middle" x="103" y="-182.2" font-family="Times,serif" font-size="14.00">🌎 🇧🇷 🇲🇽 🇨🇴 🇦🇷 🇵🇪...</text>
</g>
<!-- mdp2&#45;&gt;lac -->
<g id="edge5" class="edge">
<title>mdp2&#45;&gt;lac</title>
<path fill="none" stroke="black" d="M48.44,-138.1C56.7,-146.64 66.49,-156.75 75.47,-166.04"/>
<polygon fill="black" stroke="black" points="72.91,-168.43 82.38,-173.18 77.94,-163.56 72.91,-168.43"/>
</g>
<!-- lac&#45;&gt;icpc -->
<g id="edge6" class="edge">
<title>lac&#45;&gt;icpc</title>
<path fill="none" stroke="black" d="M180.35,-215.05C245.55,-230.69 338.05,-252.87 401.29,-268.04"/>
<polygon fill="black" stroke="black" points="400.34,-271.41 410.88,-270.34 401.97,-264.61 400.34,-271.41"/>
</g>
<!-- otherslac -->
<g id="node8" class="node">
<title>otherslac</title>
<text xml:space="preserve" text-anchor="middle" x="103" y="-25.2" font-family="Times,serif" font-size="14.00">...</text>
</g>
<!-- otherlac -->
<g id="node9" class="node">
<title>otherlac</title>
<text xml:space="preserve" text-anchor="middle" x="103" y="-112.33" font-family="Times,serif" font-size="14.00">...</text>
</g>
<!-- otherslac&#45;&gt;otherlac -->
<g id="edge7" class="edge">
<title>otherslac&#45;&gt;otherlac</title>
<path fill="none" stroke="black" d="M103,-47.69C103,-59.12 103,-74.51 103,-87.79"/>
<polygon fill="black" stroke="black" points="99.5,-87.7 103,-97.7 106.5,-87.7 99.5,-87.7"/>
</g>
<!-- otherlac&#45;&gt;lac -->
<g id="edge8" class="edge">
<title>otherlac&#45;&gt;lac</title>
<path fill="none" stroke="black" d="M103,-134.98C103,-143.24 103,-153.44 103,-163.05"/>
<polygon fill="black" stroke="black" points="99.5,-162.8 103,-172.8 106.5,-162.8 99.5,-162.8"/>
</g>
<!-- oesrc -->
<g id="node10" class="node">
<title>oesrc</title>
<text xml:space="preserve" text-anchor="middle" x="973" y="-25.2" font-family="Times,serif" font-size="14.00">... 🇪🇺 ...</text>
</g>
<!-- swerc -->
<g id="node11" class="node">
<title>swerc</title>
<text xml:space="preserve" text-anchor="middle" x="842" y="-120.95" font-family="Times,serif" font-size="14.00">SWERC</text>
<text xml:space="preserve" text-anchor="middle" x="842" y="-103.7" font-family="Times,serif" font-size="14.00">🇪🇺</text>
</g>
<!-- oesrc&#45;&gt;swerc -->
<g id="edge9" class="edge">
<title>oesrc&#45;&gt;swerc</title>
<path fill="none" stroke="black" d="M947.43,-47.7C941.39,-51.66 934.97,-55.86 929,-59.75 913.79,-69.66 897.06,-80.49 882.36,-89.98"/>
<polygon fill="black" stroke="black" points="880.81,-86.82 874.31,-95.18 884.61,-92.7 880.81,-86.82"/>
</g>
<!-- seerc -->
<g id="node12" class="node">
<title>seerc</title>
<text xml:space="preserve" text-anchor="middle" x="930" y="-120.95" font-family="Times,serif" font-size="14.00">SEERC</text>
<text xml:space="preserve" text-anchor="middle" x="930" y="-103.7" font-family="Times,serif" font-size="14.00">🇪🇺</text>
</g>
<!-- oesrc&#45;&gt;seerc -->
<g id="edge11" class="edge">
<title>oesrc&#45;&gt;seerc</title>
<path fill="none" stroke="black" d="M964.5,-47.69C959.04,-58.52 951.77,-72.91 945.31,-85.68"/>
<polygon fill="black" stroke="black" points="942.21,-84.07 940.82,-94.57 948.46,-87.22 942.21,-84.07"/>
</g>
<!-- cerc -->
<g id="node13" class="node">
<title>cerc</title>
<text xml:space="preserve" text-anchor="middle" x="1011" y="-120.95" font-family="Times,serif" font-size="14.00">CERC</text>
<text xml:space="preserve" text-anchor="middle" x="1011" y="-103.7" font-family="Times,serif" font-size="14.00">🇪🇺</text>
</g>
<!-- oesrc&#45;&gt;cerc -->
<g id="edge13" class="edge">
<title>oesrc&#45;&gt;cerc</title>
<path fill="none" stroke="black" d="M980.51,-47.69C985.34,-58.52 991.76,-72.91 997.47,-85.68"/>
<polygon fill="black" stroke="black" points="994.15,-86.84 1001.42,-94.54 1000.54,-83.98 994.15,-86.84"/>
</g>
<!-- swerc&#45;&gt;euc -->
<g id="edge10" class="edge">
<title>swerc&#45;&gt;euc</title>
<path fill="none" stroke="black" d="M842,-138.1C842,-145.68 842,-154.5 842,-162.89"/>
<polygon fill="black" stroke="black" points="838.5,-162.76 842,-172.76 845.5,-162.76 838.5,-162.76"/>
</g>
<!-- seerc&#45;&gt;euc -->
<g id="edge12" class="edge">
<title>seerc&#45;&gt;euc</title>
<path fill="none" stroke="black" d="M906.88,-138.1C896.75,-146.9 884.71,-157.37 873.76,-166.89"/>
<polygon fill="black" stroke="black" points="871.67,-164.07 866.41,-173.28 876.26,-169.36 871.67,-164.07"/>
</g>
<!-- cerc&#45;&gt;euc -->
<g id="edge14" class="edge">
<title>cerc&#45;&gt;euc</title>
<path fill="none" stroke="black" d="M982.08,-133.73C979.03,-135.29 975.97,-136.83 973,-138.25 941.82,-153.22 905.64,-168.61 879.22,-179.5"/>
<polygon fill="black" stroke="black" points="878.22,-176.12 870.29,-183.15 880.87,-182.6 878.22,-176.12"/>
</g>
<!-- gcpc -->
<g id="node14" class="node">
<title>gcpc</title>
<text xml:space="preserve" text-anchor="middle" x="704" y="-33.83" font-family="Times,serif" font-size="14.00">GCPC</text>
<text xml:space="preserve" text-anchor="middle" x="704" y="-16.57" font-family="Times,serif" font-size="14.00">🇩🇪</text>
</g>
<!-- gcpc&#45;&gt;nwerc -->
<g id="edge15" class="edge">
<title>gcpc&#45;&gt;nwerc</title>
<path fill="none" stroke="black" d="M715.14,-51.05C720.93,-61.54 728.13,-74.58 734.55,-86.21"/>
<polygon fill="black" stroke="black" points="731.31,-87.58 739.21,-94.65 737.44,-84.2 731.31,-87.58"/>
</g>
<!-- ukiepc -->
<g id="node15" class="node">
<title>ukiepc</title>
<text xml:space="preserve" text-anchor="middle" x="788" y="-33.83" font-family="Times,serif" font-size="14.00">UKIEPC</text>
<text xml:space="preserve" text-anchor="middle" x="788" y="-16.57" font-family="Times,serif" font-size="14.00">🇬🇧 🇮🇪</text>
</g>
<!-- ukiepc&#45;&gt;nwerc -->
<g id="edge16" class="edge">
<title>ukiepc&#45;&gt;nwerc</title>
<path fill="none" stroke="black" d="M779.23,-51.05C774.76,-61.33 769.23,-74.05 764.26,-85.5"/>
<polygon fill="black" stroke="black" points="761.09,-84.02 760.31,-94.58 767.51,-86.81 761.09,-84.02"/>
</g>
<!-- bapc -->
<g id="node16" class="node">
<title>bapc</title>
<text xml:space="preserve" text-anchor="middle" x="882" y="-33.83" font-family="Times,serif" font-size="14.00">BAPC</text>
<text xml:space="preserve" text-anchor="middle" x="882" y="-16.57" font-family="Times,serif" font-size="14.00">🇧🇪 🇳🇱 🇱🇺</text>
</g>
<!-- bapc&#45;&gt;nwerc -->
<g id="edge17" class="edge">
<title>bapc&#45;&gt;nwerc</title>
<path fill="none" stroke="black" d="M850.95,-51.05C833.09,-62.66 810.45,-77.37 791.23,-89.86"/>
<polygon fill="black" stroke="black" points="789.57,-86.76 783.09,-95.15 793.38,-92.63 789.57,-86.76"/>
</g>
<!-- naq -->
<g id="node17" class="node">
<title>naq</title>
<text xml:space="preserve" text-anchor="middle" x="356" y="-33.83" font-family="Times,serif" font-size="14.00">NAQ</text>
<text xml:space="preserve" text-anchor="middle" x="356" y="-16.57" font-family="Times,serif" font-size="14.00">🇺🇸 🇨🇦</text>
</g>
<!-- rmrc -->
<g id="node18" class="node">
<title>rmrc</title>
<text xml:space="preserve" text-anchor="middle" x="179" y="-120.95" font-family="Times,serif" font-size="14.00">RMRC</text>
<text xml:space="preserve" text-anchor="middle" x="179" y="-103.7" font-family="Times,serif" font-size="14.00">🇺🇸 🇨🇦</text>
</g>
<!-- naq&#45;&gt;rmrc -->
<g id="edge18" class="edge">
<title>naq&#45;&gt;rmrc</title>
<path fill="none" stroke="black" d="M328.61,-43.59C302.88,-55.58 263.1,-74.28 219.73,-95.45"/>
<polygon fill="black" stroke="black" points="218.34,-92.23 210.89,-99.77 221.41,-98.52 218.34,-92.23"/>
</g>
<!-- ncnarc -->
<g id="node19" class="node">
<title>ncnarc</title>
<text xml:space="preserve" text-anchor="middle" x="269" y="-120.95" font-family="Times,serif" font-size="14.00">NCNARC</text>
<text xml:space="preserve" text-anchor="middle" x="269" y="-103.7" font-family="Times,serif" font-size="14.00">🇺🇸 🇨🇦</text>
</g>
<!-- naq&#45;&gt;ncnarc -->
<g id="edge19" class="edge">
<title>naq&#45;&gt;ncnarc</title>
<path fill="none" stroke="black" d="M335.38,-51.05C324.11,-62.07 309.98,-75.9 297.66,-87.96"/>
<polygon fill="black" stroke="black" points="295.25,-85.42 290.55,-94.91 300.15,-90.42 295.25,-85.42"/>
</g>
<!-- scrc -->
<g id="node20" class="node">
<title>scrc</title>
<text xml:space="preserve" text-anchor="middle" x="356" y="-120.95" font-family="Times,serif" font-size="14.00">SCRC</text>
<text xml:space="preserve" text-anchor="middle" x="356" y="-103.7" font-family="Times,serif" font-size="14.00">🇺🇸</text>
</g>
<!-- naq&#45;&gt;scrc -->
<g id="edge20" class="edge">
<title>naq&#45;&gt;scrc</title>
<path fill="none" stroke="black" d="M356,-51.05C356,-61.12 356,-73.53 356,-84.79"/>
<polygon fill="black" stroke="black" points="352.5,-84.46 356,-94.46 359.5,-84.46 352.5,-84.46"/>
</g>
<!-- othernarc -->
<g id="node21" class="node">
<title>othernarc</title>
<text xml:space="preserve" text-anchor="middle" x="430" y="-112.33" font-family="Times,serif" font-size="14.00">...</text>
</g>
<!-- naq&#45;&gt;othernarc -->
<g id="edge21" class="edge">
<title>naq&#45;&gt;othernarc</title>
<path fill="none" stroke="black" d="M373.54,-51.05C383.79,-62.84 396.82,-77.83 407.78,-90.44"/>
<polygon fill="black" stroke="black" points="405.13,-92.73 414.34,-97.98 410.42,-88.14 405.13,-92.73"/>
</g>
<!-- ecnarc -->
<g id="node22" class="node">
<title>ecnarc</title>
<text xml:space="preserve" text-anchor="middle" x="515" y="-120.95" font-family="Times,serif" font-size="14.00">ECNARC</text>
<text xml:space="preserve" text-anchor="middle" x="515" y="-103.7" font-family="Times,serif" font-size="14.00">🇺🇸 🇨🇦</text>
</g>
<!-- naq&#45;&gt;ecnarc -->
<g id="edge22" class="edge">
<title>naq&#45;&gt;ecnarc</title>
<path fill="none" stroke="black" d="M383.33,-45.51C406.42,-57.87 440.03,-75.86 467.51,-90.57"/>
<polygon fill="black" stroke="black" points="465.52,-93.48 475.99,-95.11 468.82,-87.31 465.52,-93.48"/>
</g>
<!-- nac -->
<g id="node23" class="node">
<title>nac</title>
<text xml:space="preserve" text-anchor="middle" x="393" y="-199.45" font-family="Times,serif" font-size="14.00">NAC</text>
<text xml:space="preserve" text-anchor="middle" x="393" y="-182.2" font-family="Times,serif" font-size="14.00">🇺🇸 🇨🇦</text>
</g>
<!-- rmrc&#45;&gt;nac -->
<g id="edge24" class="edge">
<title>rmrc&#45;&gt;nac</title>
<path fill="none" stroke="black" d="M209.79,-134.18C212.87,-135.62 215.98,-137.01 219,-138.25 264.69,-157.07 319.15,-173.8 354.82,-184.02"/>
<polygon fill="black" stroke="black" points="353.67,-187.33 364.25,-186.69 355.58,-180.6 353.67,-187.33"/>
</g>
<!-- ncnarc&#45;&gt;nac -->
<g id="edge25" class="edge">
<title>ncnarc&#45;&gt;nac</title>
<path fill="none" stroke="black" d="M301.58,-138.1C318.25,-148.39 338.63,-160.96 355.9,-171.61"/>
<polygon fill="black" stroke="black" points="354.03,-174.57 364.38,-176.84 357.71,-168.61 354.03,-174.57"/>
</g>
<!-- scrc&#45;&gt;nac -->
<g id="edge26" class="edge">
<title>scrc&#45;&gt;nac</title>
<path fill="none" stroke="black" d="M365.72,-138.1C369.56,-146.03 374.05,-155.32 378.27,-164.04"/>
<polygon fill="black" stroke="black" points="375.05,-165.43 382.56,-172.91 381.35,-162.38 375.05,-165.43"/>
</g>
<!-- othernarc&#45;&gt;nac -->
<g id="edge27" class="edge">
<title>othernarc&#45;&gt;nac</title>
<path fill="none" stroke="black" d="M421.79,-134.98C417.66,-143.51 412.53,-154.12 407.75,-164"/>
<polygon fill="black" stroke="black" points="404.63,-162.42 403.42,-172.95 410.93,-165.47 404.63,-162.42"/>
</g>
<!-- ecnarc&#45;&gt;nac -->
<g id="edge28" class="edge">
<title>ecnarc&#45;&gt;nac</title>
<path fill="none" stroke="black" d="M482.95,-138.1C466.66,-148.31 446.78,-160.77 429.86,-171.38"/>
<polygon fill="black" stroke="black" points="428.19,-168.3 421.58,-176.58 431.91,-174.23 428.19,-168.3"/>
</g>
<!-- nac&#45;&gt;icpc -->
<g id="edge23" class="edge">
<title>nac&#45;&gt;icpc</title>
<path fill="none" stroke="black" d="M410.93,-216.58C418.32,-224.87 427.17,-234.78 435.81,-244.45"/>
<polygon fill="black" stroke="black" points="433.02,-246.59 442.29,-251.72 438.24,-241.93 433.02,-246.59"/>
</g>
<!-- otherworld -->
<g id="node24" class="node">
<title>otherworld</title>
<text xml:space="preserve" text-anchor="middle" x="515" y="-190.82" font-family="Times,serif" font-size="14.00">...</text>
</g>
<!-- otherworld&#45;&gt;icpc -->
<g id="edge29" class="edge">
<title>otherworld&#45;&gt;icpc</title>
<path fill="none" stroke="black" d="M506.91,-213.15C502.82,-221.56 497.66,-232.19 492.57,-242.67"/>
<polygon fill="black" stroke="black" points="489.42,-241.13 488.2,-251.66 495.72,-244.19 489.42,-241.13"/>
</g>
<!-- otherworldrc -->
<g id="node25" class="node">
<title>otherworldrc</title>
<text xml:space="preserve" text-anchor="middle" x="600" y="-112.33" font-family="Times,serif" font-size="14.00">...</text>
</g>
<!-- otherworldrc&#45;&gt;otherworld -->
<g id="edge30" class="edge">
<title>otherworldrc&#45;&gt;otherworld</title>
<path fill="none" stroke="black" d="M581.14,-134.98C569.69,-145.28 554.89,-158.6 542.2,-170.02"/>
<polygon fill="black" stroke="black" points="540.03,-167.27 534.94,-176.56 544.71,-172.47 540.03,-167.27"/>
</g>
<!-- otherworldsrc -->
<g id="node26" class="node">
<title>otherworldsrc</title>
<text xml:space="preserve" text-anchor="middle" x="514" y="-25.2" font-family="Times,serif" font-size="14.00">...</text>
</g>
<!-- otherworldsrc&#45;&gt;otherworldrc -->
<g id="edge31" class="edge">
<title>otherworldsrc&#45;&gt;otherworldrc</title>
<path fill="none" stroke="black" d="M530.99,-47.69C543.59,-60.17 560.97,-77.37 575.14,-91.39"/>
<polygon fill="black" stroke="black" points="572.4,-93.6 581.97,-98.15 577.32,-88.63 572.4,-93.6"/>
</g>
</g>
</svg>
