<?xml version="1.0" encoding="UTF-8" standalone="no"?>
<!DOCTYPE svg PUBLIC "-//W3C//DTD SVG 1.1//EN"
 "http://www.w3.org/Graphics/SVG/1.1/DTD/svg11.dtd">
<!-- Generated by graphviz version 14.1.5 (0)
 -->
<!-- Title: G Pages: 1 -->
<svg width="831pt" height="327pt"
 viewBox="0.00 0.00 831.00 327.00" xmlns="http://www.w3.org/2000/svg" xmlns:xlink="http://www.w3.org/1999/xlink">
<g id="graph0" class="graph" transform="scale(1 1) rotate(0) translate(4 323.25)">
<title>G</title>
<!-- ncpc -->
<g id="node1" class="node">
<title>ncpc</title>
<text xml:space="preserve" text-anchor="middle" x="334.88" y="-42.45" font-family="Times,serif" font-size="14.00">NCPC</text>
<text xml:space="preserve" text-anchor="middle" x="334.88" y="-25.2" font-family="Times,serif" font-size="14.00">🇸🇪 🇳🇴 🇩🇰 🇮🇸</text>
<text xml:space="preserve" text-anchor="middle" x="334.88" y="-7.95" font-family="Times,serif" font-size="14.00">🇫🇮 🇪🇪 🇱🇹</text>
</g>
<!-- nwerc -->
<g id="node2" class="node">
<title>nwerc</title>
<text xml:space="preserve" text-anchor="middle" x="461.88" y="-120.95" font-family="Times,serif" font-size="14.00">NWERC</text>
<text xml:space="preserve" text-anchor="middle" x="461.88" y="-103.7" font-family="Times,serif" font-size="14.00">🇪🇺</text>
</g>
<!-- ncpc&#45;&gt;nwerc -->
<g id="edge1" class="edge">
<title>ncpc&#45;&gt;nwerc</title>
<path fill="none" stroke="black" stroke-width="2" d="M377.87,-59.69C391.84,-69.06 407.29,-79.41 421.09,-88.66"/>
<polygon fill="black" stroke="black" stroke-width="2" points="418.98,-91.46 429.23,-94.12 422.88,-85.65 418.98,-91.46"/>
</g>
<!-- euc -->
<g id="node3" class="node">
<title>euc</title>
<text xml:space="preserve" text-anchor="middle" x="595.88" y="-199.45" font-family="Times,serif" font-size="14.00">EUC</text>
<text xml:space="preserve" text-anchor="middle" x="595.88" y="-182.2" font-family="Times,serif" font-size="14.00">🇪🇺</text>
</g>
<!-- nwerc&#45;&gt;euc -->
<g id="edge2" class="edge">
<title>nwerc&#45;&gt;euc</title>
<path fill="none" stroke="black" stroke-width="2" d="M497.08,-138.1C515.7,-148.73 538.59,-161.8 557.65,-172.68"/>
<polygon fill="black" stroke="black" stroke-width="2" points="555.9,-175.71 566.32,-177.62 559.37,-169.63 555.9,-175.71"/>
</g>
<!-- icpc -->
<g id="node4" class="node">
<title>icpc</title>
<text xml:space="preserve" text-anchor="middle" x="595.88" y="-300.05" font-family="Times,serif" font-size="16.00">ICPC</text>
<text xml:space="preserve" text-anchor="middle" x="595.88" y="-280.55" font-family="Times,serif" font-size="16.00">World Finals</text>
<text xml:space="preserve" text-anchor="middle" x="595.88" y="-261.05" font-family="Times,serif" font-size="16.00">🌎 🌍 🌏</text>
</g>
<!-- euc&#45;&gt;icpc -->
<g id="edge3" class="edge">
<title>euc&#45;&gt;icpc</title>
<path fill="none" stroke="black" stroke-width="2" d="M595.88,-216.58C595.88,-223.61 595.88,-231.81 595.88,-240.05"/>
<polygon fill="black" stroke="black" stroke-width="2" points="592.38,-239.82 595.88,-249.82 599.38,-239.82 592.38,-239.82"/>
</g>
<!-- swerc -->
<g id="node5" class="node">
<title>swerc</title>
<text xml:space="preserve" text-anchor="middle" x="552.88" y="-120.95" font-family="Times,serif" font-size="14.00">SWERC</text>
<text xml:space="preserve" text-anchor="middle" x="552.88" y="-103.7" font-family="Times,serif" font-size="14.00">🇪🇺</text>
</g>
<!-- swerc&#45;&gt;euc -->
<g id="edge4" class="edge">
<title>swerc&#45;&gt;euc</title>
<path fill="none" stroke="black" d="M564.17,-138.1C568.68,-146.12 573.97,-155.52 578.91,-164.33"/>
<polygon fill="black" stroke="black" points="575.81,-165.95 583.76,-172.95 581.91,-162.52 575.81,-165.95"/>
</g>
<!-- seerc -->
<g id="node6" class="node">
<title>seerc</title>
<text xml:space="preserve" text-anchor="middle" x="640.88" y="-120.95" font-family="Times,serif" font-size="14.00">SEERC</text>
<text xml:space="preserve" text-anchor="middle" x="640.88" y="-103.7" font-family="Times,serif" font-size="14.00">🇪🇺</text>
</g>
<!-- seerc&#45;&gt;euc -->
<g id="edge5" class="edge">
<title>seerc&#45;&gt;euc</title>
<path fill="none" stroke="black" d="M629.05,-138.1C624.28,-146.2 618.68,-155.73 613.46,-164.61"/>
<polygon fill="black" stroke="black" points="610.6,-162.57 608.54,-172.96 616.63,-166.12 610.6,-162.57"/>
</g>
<!-- cerc -->
<g id="node7" class="node">
<title>cerc</title>
<text xml:space="preserve" text-anchor="middle" x="721.88" y="-120.95" font-family="Times,serif" font-size="14.00">CERC</text>
<text xml:space="preserve" text-anchor="middle" x="721.88" y="-103.7" font-family="Times,serif" font-size="14.00">🇪🇺</text>
</g>
<!-- cerc&#45;&gt;euc -->
<g id="edge6" class="edge">
<title>cerc&#45;&gt;euc</title>
<path fill="none" stroke="black" d="M692.97,-135.55C674.9,-146.52 651.48,-160.74 632.17,-172.46"/>
<polygon fill="black" stroke="black" points="630.52,-169.37 623.79,-177.55 634.16,-175.35 630.52,-169.37"/>
</g>
<!-- gcpc -->
<g id="node8" class="node">
<title>gcpc</title>
<text xml:space="preserve" text-anchor="middle" x="430.88" y="-33.83" font-family="Times,serif" font-size="14.00">GCPC</text>
<text xml:space="preserve" text-anchor="middle" x="430.88" y="-16.57" font-family="Times,serif" font-size="14.00">🇩🇪</text>
</g>
<!-- gcpc&#45;&gt;nwerc -->
<g id="edge7" class="edge">
<title>gcpc&#45;&gt;nwerc</title>
<path fill="none" stroke="black" d="M438.22,-51.05C441.97,-61.33 446.6,-74.05 450.77,-85.5"/>
<polygon fill="black" stroke="black" points="447.35,-86.35 454.06,-94.55 453.93,-83.96 447.35,-86.35"/>
</g>
<!-- ukiepc -->
<g id="node9" class="node">
<title>ukiepc</title>
<text xml:space="preserve" text-anchor="middle" x="514.88" y="-33.83" font-family="Times,serif" font-size="14.00">UKIEPC</text>
<text xml:space="preserve" text-anchor="middle" x="514.88" y="-16.57" font-family="Times,serif" font-size="14.00">🇬🇧 🇮🇪</text>
</g>
<!-- ukiepc&#45;&gt;nwerc -->
<g id="edge8" class="edge">
<title>ukiepc&#45;&gt;nwerc</title>
<path fill="none" stroke="black" d="M502.31,-51.05C495.78,-61.54 487.66,-74.58 480.42,-86.21"/>
<polygon fill="black" stroke="black" points="477.46,-84.35 475.15,-94.69 483.4,-88.05 477.46,-84.35"/>
</g>
<!-- bapc -->
<g id="node10" class="node">
<title>bapc</title>
<text xml:space="preserve" text-anchor="middle" x="608.88" y="-33.83" font-family="Times,serif" font-size="14.00">BAPC</text>
<text xml:space="preserve" text-anchor="middle" x="608.88" y="-16.57" font-family="Times,serif" font-size="14.00">🇧🇪 🇳🇱 🇱🇺</text>
</g>
<!-- bapc&#45;&gt;nwerc -->
<g id="edge9" class="edge">
<title>bapc&#45;&gt;nwerc</title>
<path fill="none" stroke="black" d="M575.63,-51.02C570.69,-53.97 565.66,-56.95 560.88,-59.75 543.47,-69.93 524.22,-80.92 507.36,-90.47"/>
<polygon fill="black" stroke="black" points="506.04,-87.19 499.06,-95.16 509.49,-93.29 506.04,-87.19"/>
</g>
<!-- naq -->
<g id="node11" class="node">
<title>naq</title>
<text xml:space="preserve" text-anchor="middle" x="207.88" y="-33.83" font-family="Times,serif" font-size="14.00">NAQ</text>
<text xml:space="preserve" text-anchor="middle" x="207.88" y="-16.57" font-family="Times,serif" font-size="14.00">🇺🇸 🇨🇦</text>
</g>
<!-- rmrc -->
<g id="node12" class="node">
<title>rmrc</title>
<text xml:space="preserve" text-anchor="middle" x="30.88" y="-120.95" font-family="Times,serif" font-size="14.00">RMRC</text>
<text xml:space="preserve" text-anchor="middle" x="30.88" y="-103.7" font-family="Times,serif" font-size="14.00">🇺🇸 🇨🇦</text>
</g>
<!-- naq&#45;&gt;rmrc -->
<g id="edge10" class="edge">
<title>naq&#45;&gt;rmrc</title>
<path fill="none" stroke="black" d="M180.48,-43.59C154.76,-55.58 114.97,-74.28 71.6,-95.45"/>
<polygon fill="black" stroke="black" points="70.21,-92.23 62.77,-99.77 73.29,-98.52 70.21,-92.23"/>
</g>
<!-- ncnarc -->
<g id="node13" class="node">
<title>ncnarc</title>
<text xml:space="preserve" text-anchor="middle" x="120.88" y="-120.95" font-family="Times,serif" font-size="14.00">NCNARC</text>
<text xml:space="preserve" text-anchor="middle" x="120.88" y="-103.7" font-family="Times,serif" font-size="14.00">🇺🇸 🇨🇦</text>
</g>
<!-- naq&#45;&gt;ncnarc -->
<g id="edge11" class="edge">
<title>naq&#45;&gt;ncnarc</title>
<path fill="none" stroke="black" d="M187.26,-51.05C175.99,-62.07 161.86,-75.9 149.53,-87.96"/>
<polygon fill="black" stroke="black" points="147.13,-85.42 142.43,-94.91 152.02,-90.42 147.13,-85.42"/>
</g>
<!-- scrc -->
<g id="node14" class="node">
<title>scrc</title>
<text xml:space="preserve" text-anchor="middle" x="207.88" y="-120.95" font-family="Times,serif" font-size="14.00">SCRC</text>
<text xml:space="preserve" text-anchor="middle" x="207.88" y="-103.7" font-family="Times,serif" font-size="14.00">🇺🇸</text>
</g>
<!-- naq&#45;&gt;scrc -->
<g id="edge12" class="edge">
<title>naq&#45;&gt;scrc</title>
<path fill="none" stroke="black" d="M207.88,-51.05C207.88,-61.12 207.88,-73.53 207.88,-84.79"/>
<polygon fill="black" stroke="black" points="204.38,-84.46 207.88,-94.46 211.38,-84.46 204.38,-84.46"/>
</g>
<!-- othernarc -->
<g id="node15" class="node">
<title>othernarc</title>
<text xml:space="preserve" text-anchor="middle" x="281.88" y="-112.33" font-family="Times,serif" font-size="14.00">...</text>
</g>
<!-- naq&#45;&gt;othernarc -->
<g id="edge13" class="edge">
<title>naq&#45;&gt;othernarc</title>
<path fill="none" stroke="black" d="M225.41,-51.05C235.66,-62.84 248.69,-77.83 259.66,-90.44"/>
<polygon fill="black" stroke="black" points="257.01,-92.73 266.21,-97.98 262.29,-88.14 257.01,-92.73"/>
</g>
<!-- ecnarc -->
<g id="node16" class="node">
<title>ecnarc</title>
<text xml:space="preserve" text-anchor="middle" x="366.88" y="-120.95" font-family="Times,serif" font-size="14.00">ECNARC</text>
<text xml:space="preserve" text-anchor="middle" x="366.88" y="-103.7" font-family="Times,serif" font-size="14.00">🇺🇸 🇨🇦</text>
</g>
<!-- naq&#45;&gt;ecnarc -->
<g id="edge14" class="edge">
<title>naq&#45;&gt;ecnarc</title>
<path fill="none" stroke="black" d="M235.21,-45.51C258.3,-57.87 291.9,-75.86 319.38,-90.57"/>
<polygon fill="black" stroke="black" points="317.39,-93.48 327.86,-95.11 320.7,-87.31 317.39,-93.48"/>
</g>
<!-- nac -->
<g id="node17" class="node">
<title>nac</title>
<text xml:space="preserve" text-anchor="middle" x="244.88" y="-199.45" font-family="Times,serif" font-size="14.00">NAC</text>
<text xml:space="preserve" text-anchor="middle" x="244.88" y="-182.2" font-family="Times,serif" font-size="14.00">🇺🇸 🇨🇦</text>
</g>
<!-- rmrc&#45;&gt;nac -->
<g id="edge16" class="edge">
<title>rmrc&#45;&gt;nac</title>
<path fill="none" stroke="black" d="M61.66,-134.18C64.74,-135.62 67.85,-137.01 70.88,-138.25 116.57,-157.07 171.02,-173.8 206.69,-184.02"/>
<polygon fill="black" stroke="black" points="205.55,-187.33 216.12,-186.69 207.46,-180.6 205.55,-187.33"/>
</g>
<!-- ncnarc&#45;&gt;nac -->
<g id="edge17" class="edge">
<title>ncnarc&#45;&gt;nac</title>
<path fill="none" stroke="black" d="M153.45,-138.1C170.13,-148.39 190.5,-160.96 207.78,-171.61"/>
<polygon fill="black" stroke="black" points="205.91,-174.57 216.25,-176.84 209.58,-168.61 205.91,-174.57"/>
</g>
<!-- scrc&#45;&gt;nac -->
<g id="edge18" class="edge">
<title>scrc&#45;&gt;nac</title>
<path fill="none" stroke="black" d="M217.6,-138.1C221.43,-146.03 225.92,-155.32 230.14,-164.04"/>
<polygon fill="black" stroke="black" points="226.93,-165.43 234.43,-172.91 233.23,-162.38 226.93,-165.43"/>
</g>
<!-- othernarc&#45;&gt;nac -->
<g id="edge19" class="edge">
<title>othernarc&#45;&gt;nac</title>
<path fill="none" stroke="black" d="M273.66,-134.98C269.54,-143.51 264.41,-154.12 259.63,-164"/>
<polygon fill="black" stroke="black" points="256.5,-162.42 255.3,-172.95 262.8,-165.47 256.5,-162.42"/>
</g>
<!-- ecnarc&#45;&gt;nac -->
<g id="edge20" class="edge">
<title>ecnarc&#45;&gt;nac</title>
<path fill="none" stroke="black" d="M334.82,-138.1C318.53,-148.31 298.66,-160.77 281.74,-171.38"/>
<polygon fill="black" stroke="black" points="280.06,-168.3 273.45,-176.58 283.78,-174.23 280.06,-168.3"/>
</g>
<!-- nac&#45;&gt;icpc -->
<g id="edge15" class="edge">
<title>nac&#45;&gt;icpc</title>
<path fill="none" stroke="black" d="M272.13,-203.37C325.93,-216.94 447.36,-247.55 525.25,-267.19"/>
<polygon fill="black" stroke="black" points="524.39,-270.59 534.94,-269.64 526.1,-263.8 524.39,-270.59"/>
</g>
<!-- otherworld -->
<g id="node18" class="node">
<title>otherworld</title>
<text xml:space="preserve" text-anchor="middle" x="752.88" y="-190.82" font-family="Times,serif" font-size="14.00">...</text>
</g>
<!-- otherworld&#45;&gt;icpc -->
<g id="edge21" class="edge">
<title>otherworld&#45;&gt;icpc</title>
<path fill="none" stroke="black" d="M725.89,-211.71C708.47,-221.53 685.01,-234.76 662.8,-247.27"/>
<polygon fill="black" stroke="black" points="661.36,-244.07 654.37,-252.03 664.8,-250.16 661.36,-244.07"/>
</g>
<!-- otherworldrc -->
<g id="node19" class="node">
<title>otherworldrc</title>
<text xml:space="preserve" text-anchor="middle" x="795.88" y="-112.33" font-family="Times,serif" font-size="14.00">...</text>
</g>
<!-- otherworldrc&#45;&gt;otherworld -->
<g id="edge22" class="edge">
<title>otherworldrc&#45;&gt;otherworld</title>
<path fill="none" stroke="black" d="M786.33,-134.98C780.93,-144.58 774.06,-156.82 767.94,-167.69"/>
<polygon fill="black" stroke="black" points="764.98,-165.82 763.13,-176.25 771.08,-169.25 764.98,-165.82"/>
</g>
<!-- otherworldsrc -->
<g id="node20" class="node">
<title>otherworldsrc</title>
<text xml:space="preserve" text-anchor="middle" x="795.88" y="-25.2" font-family="Times,serif" font-size="14.00">...</text>
</g>
<!-- otherworldsrc&#45;&gt;otherworldrc -->
<g id="edge23" class="edge">
<title>otherworldsrc&#45;&gt;otherworldrc</title>
<path fill="none" stroke="black" d="M795.88,-47.69C795.88,-59.12 795.88,-74.51 795.88,-87.79"/>
<polygon fill="black" stroke="black" points="792.38,-87.7 795.88,-97.7 799.38,-87.7 792.38,-87.7"/>
</g>
</g>
</svg>
