<?xml version="1.0" encoding="UTF-8" standalone="no"?>
<!DOCTYPE svg PUBLIC "-//W3C//DTD SVG 1.1//EN" "http://www.w3.org/Graphics/SVG/1.1/DTD/svg11.dtd">
<svg width="26cm" height="13cm" viewBox="-1 3 501 254" xmlns="http://www.w3.org/2000/svg" xmlns:xlink="http://www.w3.org/1999/xlink">
  <defs/>
  <g id="Background"/>
  <g id="Background"/>
  <g id="Background"/>
  <g id="Background"/>
  <g id="Background">
    <rect style="fill: #ffffdd; fill-opacity: 1; stroke-opacity: 1; stroke-width: 1; stroke-dasharray: 6.6; stroke: #000000" x="0" y="40" width="500" height="180" rx="0" ry="0"/>
    <rect style="fill: #eeffee; fill-opacity: 1; stroke-opacity: 1; stroke-width: 1; stroke: #000000" x="0" y="100" width="120" height="120" rx="0" ry="0"/>
    <rect style="fill: #ffeeff; fill-opacity: 1; stroke-opacity: 1; stroke-width: 1; stroke: #000000" x="120" y="140" width="80" height="80" rx="0" ry="0"/>
    <rect style="fill: #ffeeff; fill-opacity: 1; stroke-opacity: 1; stroke-width: 1; stroke: #000000" x="200" y="140" width="80" height="80" rx="0" ry="0"/>
    <rect style="fill: #eeeeee; fill-opacity: 1; stroke-opacity: 1; stroke-width: 1; stroke: #000000" x="280" y="140" width="80" height="80" rx="0" ry="0"/>
    <rect style="fill: #dddddd; fill-opacity: 1; stroke-opacity: 1; stroke-width: 1; stroke: #000000" x="440" y="40" width="60" height="180" rx="0" ry="0"/>
    <text font-size="12.8" style="fill: #000000; fill-opacity: 1; stroke: none;text-anchor:middle;font-family:sans-serif;font-style:normal;font-weight:normal" x="60" y="148.95">
      <tspan x="60" y="148.95">Stora Enso</tspan>
      <tspan x="60" y="164.95">E1029</tspan>
      <tspan x="60" y="180.95">Presentations</tspan>
    </text>
    <rect style="fill: #dddddd; fill-opacity: 1; stroke-opacity: 1; stroke-width: 1; stroke: #000000" x="280" y="40" width="80" height="60" rx="0" ry="0"/>
    <text font-size="12.8" style="fill: #000000; fill-opacity: 1; stroke: none;text-anchor:middle;font-family:sans-serif;font-style:normal;font-weight:700" x="160" y="168.95">
      <tspan x="160" y="168.95">Husqvarna</tspan>
      <tspan x="160" y="184.95">E1028</tspan>
      <tspan x="160" y="200.95">Contest</tspan>
    </text>
    <text font-size="12.8" style="fill: #000000; fill-opacity: 1; stroke: none;text-anchor:middle;font-family:sans-serif;font-style:normal;font-weight:700" x="240" y="168.95">
      <tspan x="240" y="168.95">Finnveden</tspan>
      <tspan x="240" y="184.95">E1022</tspan>
      <tspan x="240" y="200.95">Contest</tspan>
    </text>
    <text font-size="12.8" style="fill: #000000; fill-opacity: 1; stroke: none;text-anchor:middle;font-family:sans-serif;font-style:normal;font-weight:normal" x="320" y="168.95">
      <tspan x="320" y="168.95">Eldon</tspan>
      <tspan x="320" y="184.95">E1017</tspan>
      <tspan x="320" y="200.95">Runners</tspan>
    </text>
    <text font-size="12.8" style="fill: #000000; fill-opacity: 1; stroke: none;text-anchor:middle;font-family:sans-serif;font-style:normal;font-weight:normal" x="400" y="28.95">
      <tspan x="400" y="28.95">Galleriet</tspan>
      <tspan x="400" y="44.95">E1120</tspan>
      <tspan x="400" y="60.95">Lunch</tspan>
    </text>
    <text font-size="12.8" style="fill: #000000; fill-opacity: 1; stroke: none;text-anchor:middle;font-family:sans-serif;font-style:normal;font-weight:normal" x="400" y="236.95">
      <tspan x="400" y="236.95">JTH</tspan>
      <tspan x="400" y="252.95">Entrance</tspan>
    </text>
    <text font-size="12.8" style="fill: #000000; fill-opacity: 1; stroke: none;text-anchor:middle;font-family:sans-serif;font-style:normal;font-weight:normal" x="260" y="16.95">
      <tspan x="260" y="16.95">Tekniska Högskolan i Jönköping (JTH)</tspan>
      <tspan x="260" y="32.95">image not to scale</tspan>
    </text>
    <rect style="fill: #dddddd; fill-opacity: 1; stroke-opacity: 1; stroke-width: 1; stroke: #000000" x="160" y="40" width="60" height="60" rx="0" ry="0"/>
    <g>
      <line style="fill: none; stroke-opacity: 1; stroke-width: 1; stroke: #000000" x1="400" y1="197.764" x2="400" y2="142.236"/>
      <polyline style="fill: none; stroke-opacity: 1; stroke-width: 1; stroke: #000000" points="395,188.882 400,198.882 405,188.882 "/>
      <polyline style="fill: none; stroke-opacity: 1; stroke-width: 1; stroke: #000000" points="405,151.118 400,141.118 395,151.118 "/>
    </g>
    <g>
      <line style="fill: none; stroke-opacity: 1; stroke-width: 1; stroke: #000000" x1="377.764" y1="120" x2="142.236" y2="120"/>
      <polyline style="fill: none; stroke-opacity: 1; stroke-width: 1; stroke: #000000" points="368.882,125 378.882,120 368.882,115 "/>
      <polyline style="fill: none; stroke-opacity: 1; stroke-width: 1; stroke: #000000" points="151.118,115 141.118,120 151.118,125 "/>
    </g>
    <g>
      <line style="fill: none; stroke-opacity: 1; stroke-width: 1; stroke: #000000" x1="400" y1="97.7639" x2="400" y2="62.2361"/>
      <polyline style="fill: none; stroke-opacity: 1; stroke-width: 1; stroke: #000000" points="395,88.882 400,98.882 405,88.882 "/>
      <polyline style="fill: none; stroke-opacity: 1; stroke-width: 1; stroke: #000000" points="405,71.118 400,61.118 395,71.118 "/>
    </g>
  </g>
</svg>
