<?xml version="1.0" encoding="UTF-8" standalone="no"?>
<!DOCTYPE svg PUBLIC "-//W3C//DTD SVG 1.1//EN" "http://www.w3.org/Graphics/SVG/1.1/DTD/svg11.dtd">
<svg width="19cm" height="16cm" viewBox="-2 3 363 318" xmlns="http://www.w3.org/2000/svg" xmlns:xlink="http://www.w3.org/1999/xlink">
  <g id="Background"/>
  <g id="Background"/>
  <g id="Background"/>
  <g id="Background"/>
  <g id="Background"/>
  <g id="Background">
    <rect style="fill: none; stroke-opacity: 1; stroke-width: 1; stroke: #000000" x="0" y="40" width="360" height="280" rx="0" ry="0"/>
    <text font-size="12.8" style="fill: #000000; fill-opacity: 1; stroke: none;text-anchor:middle;font-family:sans-serif;font-style:normal;font-weight:normal" x="180" y="168.95">
      <tspan x="180" y="168.95">Husqvarna E1028</tspan>
      <tspan x="180" y="184.95">/</tspan>
      <tspan x="180" y="200.95">Finnveden E1022</tspan>
    </text>
    <line style="fill: none; stroke-opacity: 1; stroke-width: 4; stroke: #000000" x1="20" y1="40" x2="60" y2="40"/>
    <text font-size="12.8" style="fill: #000000; fill-opacity: 1; stroke: none;text-anchor:middle;font-family:sans-serif;font-style:normal;font-weight:normal" x="40" y="16.95">
      <tspan x="40" y="16.95">Room</tspan>
      <tspan x="40" y="32.95">Entrance</tspan>
    </text>
    <path style="fill: none; stroke-opacity: 1; stroke-width: 2; stroke-dasharray: 6.6; stroke: #000000" d="M 60,40 A 40,40 0 0 1 20,80"/>
    <line style="fill: none; stroke-opacity: 1; stroke-width: 4; stroke: #000000" x1="20" y1="40" x2="20" y2="80"/>
    <rect style="fill: none; stroke-opacity: 1; stroke-width: 1; stroke: #000000" x="80" y="260" width="40" height="60" rx="0" ry="0"/>
    <rect style="fill: none; stroke-opacity: 1; stroke-width: 1; stroke: #000000" x="160" y="260" width="40" height="60" rx="0" ry="0"/>
    <rect style="fill: none; stroke-opacity: 1; stroke-width: 1; stroke: #000000" x="240" y="260" width="40" height="60" rx="0" ry="0"/>
    <rect style="fill: none; stroke-opacity: 1; stroke-width: 1; stroke: #000000" x="300" y="200" width="60" height="40" rx="0" ry="0"/>
    <rect style="fill: none; stroke-opacity: 1; stroke-width: 1; stroke: #000000" x="300" y="120" width="60" height="40" rx="0" ry="0"/>
    <rect style="fill: none; stroke-opacity: 1; stroke-width: 1; stroke: #000000" x="240" y="40" width="40" height="60" rx="0" ry="0"/>
    <rect style="fill: none; stroke-opacity: 1; stroke-width: 1; stroke: #000000" x="160" y="40" width="40" height="60" rx="0" ry="0"/>
    <rect style="fill: none; stroke-opacity: 1; stroke-width: 1; stroke: #000000" x="80" y="40" width="40" height="60" rx="0" ry="0"/>
    <text font-size="12.8" style="fill: #000000; fill-opacity: 1; stroke: none;text-anchor:middle;font-family:sans-serif;font-style:normal;font-weight:normal" x="100" y="66.95">
      <tspan x="100" y="66.95">Team</tspan>
      <tspan x="100" y="82.95">#1</tspan>
    </text>
    <text font-size="12.8" style="fill: #000000; fill-opacity: 1; stroke: none;text-anchor:middle;font-family:sans-serif;font-style:normal;font-weight:normal" x="180" y="66.95">
      <tspan x="180" y="66.95">Team</tspan>
      <tspan x="180" y="82.95">#2</tspan>
    </text>
    <text font-size="12.8" style="fill: #000000; fill-opacity: 1; stroke: none;text-anchor:middle;font-family:sans-serif;font-style:normal;font-weight:normal" x="260" y="66.95">
      <tspan x="260" y="66.95">Team</tspan>
      <tspan x="260" y="82.95">#3</tspan>
    </text>
    <text font-size="12.8" style="fill: #000000; fill-opacity: 1; stroke: none;text-anchor:middle;font-family:sans-serif;font-style:normal;font-weight:normal" x="330" y="136.95">
      <tspan x="330" y="136.95">Team</tspan>
      <tspan x="330" y="152.95">#4</tspan>
    </text>
    <text font-size="12.8" style="fill: #000000; fill-opacity: 1; stroke: none;text-anchor:middle;font-family:sans-serif;font-style:normal;font-weight:normal" x="330" y="216.95">
      <tspan x="330" y="216.95">Team</tspan>
      <tspan x="330" y="232.95">#5</tspan>
    </text>
    <text font-size="12.8" style="fill: #000000; fill-opacity: 1; stroke: none;text-anchor:middle;font-family:sans-serif;font-style:normal;font-weight:normal" x="260" y="286.95">
      <tspan x="260" y="286.95">Team</tspan>
      <tspan x="260" y="302.95">#6</tspan>
    </text>
    <text font-size="12.8" style="fill: #000000; fill-opacity: 1; stroke: none;text-anchor:middle;font-family:sans-serif;font-style:normal;font-weight:normal" x="180" y="286.95">
      <tspan x="180" y="286.95">Team</tspan>
      <tspan x="180" y="302.95">#7</tspan>
    </text>
    <text font-size="12.8" style="fill: #000000; fill-opacity: 1; stroke: none;text-anchor:middle;font-family:sans-serif;font-style:normal;font-weight:normal" x="100" y="286.95">
      <tspan x="100" y="286.95">Team</tspan>
      <tspan x="100" y="302.95">#8</tspan>
    </text>
    <line style="fill: none; stroke-opacity: 1; stroke-width: 4; stroke: #000000" x1="0" y1="120" x2="0" y2="240"/>
    <text font-size="8.46667" style="fill: #000000; fill-opacity: 1; stroke: none;text-anchor:middle;font-family:sans-serif;font-style:normal;font-weight:normal" x="30" y="172.717">
      <tspan x="30" y="172.717">Projector</tspan>
      <tspan x="30" y="183.3">/</tspan>
      <tspan x="30" y="193.883">Whieboard</tspan>
    </text>
  </g>
</svg>
